<?xml version="1.0" encoding="iso-8859-1"?>
<!-- Generator: Adobe Illustrator 19.0.0, SVG Export Plug-In . SVG Version: 6.00 Build 0)  -->
<svg xmlns="http://www.w3.org/2000/svg" xmlns:xlink="http://www.w3.org/1999/xlink" version="1.1" id="Layer_1" x="0px" y="0px" viewBox="0 0 512 512" style="enable-background:new 0 0 512 512;" xml:space="preserve" width="512px" height="512px">
<g>
	<g>
		<g>
			<path d="M266.667,166.25v-59.583C266.667,100.771,261.896,96,256,96s-10.667,4.771-10.667,10.667v64     c0,2.833,1.125,5.542,3.125,7.542l32,32c2.083,2.083,4.813,3.125,7.542,3.125s5.458-1.042,7.542-3.125     c4.167-4.167,4.167-10.917,0-15.083L266.667,166.25z" fill="#FFFFFF"/>
			<path d="M256,0C161.896,0,85.333,76.563,85.333,170.667c0,28.25,7.063,56.26,20.49,81.104L246.667,506.5     c1.875,3.396,5.448,5.5,9.333,5.5s7.458-2.104,9.333-5.5l140.896-254.813c13.375-24.76,20.438-52.771,20.438-81.021     C426.667,76.563,350.104,0,256,0z M256,288c-64.698,0-117.333-52.635-117.333-117.333S191.302,53.333,256,53.333     s117.333,52.635,117.333,117.333S320.698,288,256,288z" fill="#FFFFFF"/>
		</g>
	</g>
</g>
<g>
</g>
<g>
</g>
<g>
</g>
<g>
</g>
<g>
</g>
<g>
</g>
<g>
</g>
<g>
</g>
<g>
</g>
<g>
</g>
<g>
</g>
<g>
</g>
<g>
</g>
<g>
</g>
<g>
</g>
</svg>
